<?xml version="1.0" encoding="UTF-8"?>
<svg version="1.1" xmlns="http://www.w3.org/2000/svg" width="71" height="66">
<path d="M0 0 C23.43 0 46.86 0 71 0 C71 21.78 71 43.56 71 66 C47.57 66 24.14 66 0 66 C0 44.22 0 22.44 0 0 Z " fill="#993D31" transform="translate(0,0)"/>
<path d="M0 0 C2.7127324 0.20239763 5.41675952 0.43582963 8.125 0.6875 C9.26582031 0.76774414 9.26582031 0.76774414 10.4296875 0.84960938 C16.12180245 1.41391387 19.0568078 2.79854761 23 7 C23 7.99 23 8.98 23 10 C25.31 10.66 27.62 11.32 30 12 C30.495 13.98 30.495 13.98 31 16 C31.66 16 32.32 16 33 16 C33.11151783 21.46437389 32.81770305 26.58271732 32 32 C32.1546875 33.546875 32.1546875 33.546875 32.3125 35.125 C32 38 32 38 29.1875 40.5625 C28.63449219 40.96210937 28.08148438 41.36171875 27.51171875 41.7734375 C25.75979143 43.03988528 25.75979143 43.03988528 24.5 45.6875 C22.40791223 48.91280198 20.70906034 49.06540061 17 50 C11.03108765 50.55299584 4.9806901 50.24138588 -1 50 C-1.94359375 49.96648438 -2.8871875 49.93296875 -3.859375 49.8984375 C-10.10681729 49.12304573 -13.21844539 45.15633437 -17.15234375 40.5078125 C-20.39494508 36.10664959 -21.25051677 33.51136893 -21 28 C-21.66 28 -22.32 28 -23 28 C-22.88382356 26.62422639 -22.75654223 25.24938955 -22.625 23.875 C-22.55539063 23.10929687 -22.48578125 22.34359375 -22.4140625 21.5546875 C-21.43410185 15.50851519 -19.57750983 12.04128397 -15.1875 7.75 C-13.90939453 6.47382813 -13.90939453 6.47382813 -12.60546875 5.171875 C-10.06476263 3.05398504 -8.1593319 1.91316238 -5 1 C-2.1875 1.375 -2.1875 1.375 0 2 C0 1.34 0 0.68 0 0 Z " fill="#C96120" transform="translate(31,8)"/>
<path d="M0 0 C0.85078125 0.65226563 1.7015625 1.30453125 2.578125 1.9765625 C7.20809297 4.71437461 11.09079043 4.66708088 16.375 4.75 C17.30183594 4.77964844 18.22867188 4.80929688 19.18359375 4.83984375 C21.45581435 4.91011861 23.72703459 4.96302048 26 5 C26 5.99 26 6.98 26 8 C23.36 8 20.72 8 18 8 C18.01571045 8.86802246 18.0314209 9.73604492 18.04760742 10.63037109 C18.09869555 13.84698287 18.13633027 17.06338813 18.16479492 20.28027344 C18.17989358 21.67324622 18.20037444 23.06617138 18.22631836 24.45898438 C18.26265122 26.45942885 18.27811192 28.46021827 18.29296875 30.4609375 C18.3086792 31.66540527 18.32438965 32.86987305 18.34057617 34.11083984 C18.17199097 35.54097412 18.17199097 35.54097412 18 37 C15 39 15 39 12 39 C12 35.04 12 31.08 12 27 C10.02 27 8.04 27 6 27 C3.625 24.5 3.625 24.5 2 22 C0.02 22.33 -1.96 22.66 -4 23 C-2.24238869 27.03895528 0.33592037 29.38128213 3.5390625 32.31640625 C5 34 5 34 5 37 C2 39 2 39 -0.4140625 38.92578125 C-3.80588614 37.71148789 -5.11703435 35.97123744 -7.375 33.1875 C-10.98428823 28.96154946 -13.98793508 26.34607294 -19 24 C-18.505 22.515 -18.505 22.515 -18 21 C-14.34965773 19.17482887 -9.99640885 19.58830887 -5.96875 19.37890625 C-2.88509744 19.29302673 -2.88509744 19.29302673 -1 17 C-0.75787127 15.01871492 -0.75787127 15.01871492 -0.875 12.875 C-0.91625 11.59625 -0.9575 10.3175 -1 9 C-4.63 8.67 -8.26 8.34 -12 8 C-11.67 7.01 -11.34 6.02 -11 5 C-8.9375 4.3125 -8.9375 4.3125 -7 4 C-8.32 3.34 -9.64 2.68 -11 2 C-7.33237392 -0.34728069 -4.28301385 -0.4430704 0 0 Z " fill="#F0E4D9" transform="translate(34,14)"/>
<path d="M0 0 C6.6 0 13.2 0 20 0 C20 0.66 20 1.32 20 2 C17.36 2 14.72 2 12 2 C12.01571045 2.86802246 12.0314209 3.73604492 12.04760742 4.63037109 C12.09869555 7.84698287 12.13633027 11.06338813 12.16479492 14.28027344 C12.17989358 15.67324622 12.20037444 17.06617138 12.22631836 18.45898438 C12.26265122 20.45942885 12.27811192 22.46021827 12.29296875 24.4609375 C12.3086792 25.66540527 12.32438965 26.86987305 12.34057617 28.11083984 C12.22818604 29.0642627 12.1157959 30.01768555 12 31 C9 33 9 33 6 33 C6 29.04 6 25.08 6 21 C4.02 21 2.04 21 0 21 C-2.375 18.625 -2.375 18.625 -4 16 C-4 15.34 -4 14.68 -4 14 C-0.7 13.67 2.6 13.34 6 13 C5.814375 11.576875 5.62875 10.15375 5.4375 8.6875 C5.02517138 5.52631393 4.96840374 4.09478879 6 1 C4.02 1 2.04 1 0 1 C0 0.67 0 0.34 0 0 Z " fill="#F7F2EC" transform="translate(40,20)"/>
<path d="M0 0 C1.09570312 0.10183594 2.19140625 0.20367187 3.3203125 0.30859375 C4.16335937 0.39238281 5.00640625 0.47617187 5.875 0.5625 C5.99681641 1.67238281 5.99681641 1.67238281 6.12109375 2.8046875 C7.04196158 6.17325065 8.36403495 7.37274308 10.9375 9.6875 C13.16015625 11.6953125 13.16015625 11.6953125 14.875 13.5625 C14.875 14.5525 14.875 15.5425 14.875 16.5625 C11.875 18.5625 11.875 18.5625 9.4609375 18.48828125 C6.06911386 17.27398789 4.75796565 15.53373744 2.5 12.75 C-1.10928823 8.52404946 -4.11293508 5.90857294 -9.125 3.5625 C-8.795 2.5725 -8.465 1.5825 -8.125 0.5625 C-5.28943413 -0.85528293 -3.1341294 -0.30007622 0 0 Z " fill="#F6EFE8" transform="translate(24.125,34.4375)"/>
<path d="M0 0 C2.22889496 -0.05428973 4.45817471 -0.09292338 6.6875 -0.125 C8.54955078 -0.15980469 8.54955078 -0.15980469 10.44921875 -0.1953125 C14.96637288 0.05315582 17.78622285 0.78622285 21 4 C21 4.99 21 5.98 21 7 C8.15510868 8.61880822 8.15510868 8.61880822 3.5 6.125 C2.675 5.42375 1.85 4.7225 1 4 C-2.23038842 3.20929452 -2.23038842 3.20929452 -5 3 C-5 2.67 -5 2.34 -5 2 C-3.35 2 -1.7 2 0 2 C0 1.34 0 0.68 0 0 Z " fill="#D6621C" transform="translate(33,11)"/>
<path d="M0 0 C1.8671875 0.45703125 1.8671875 0.45703125 4 2 C5.14589888 4.81575014 5.63909195 7.69561008 6.125 10.6875 C6.25970703 11.50879395 6.39441406 12.33008789 6.53320312 13.17626953 C6.99502226 16.71145252 7.28743299 19.23312879 6.0234375 22.60546875 C4.46981188 24.41006466 2.9762237 25.67960275 1 27 C0.0925 27.7425 -0.815 28.485 -1.75 29.25 C-2.4925 29.8275 -3.235 30.405 -4 31 C-4.99 32.485 -4.99 32.485 -6 34 C-6.66 33.67 -7.32 33.34 -8 33 C-7.04578192 31.85073734 -6.08647955 30.70569459 -5.125 29.5625 C-4.59132812 28.92441406 -4.05765625 28.28632812 -3.5078125 27.62890625 C-2 26 -2 26 0 25 C-0.061875 23.453125 -0.061875 23.453125 -0.125 21.875 C-0.14794805 15.51839052 1.01479488 9.2630897 2 3 C1.34 3 0.68 3 0 3 C0 2.01 0 1.02 0 0 Z " fill="#B94E25" transform="translate(62,21)"/>
<path d="M0 0 C0 0.66 0 1.32 0 2 C-1.155 2.020625 -2.31 2.04125 -3.5 2.0625 C-9.12208184 2.74033965 -12.12943375 6.15518031 -16 10 C-17.2065625 10.8971875 -17.2065625 10.8971875 -18.4375 11.8125 C-20.65155948 14.91218327 -20.57812063 17.81719754 -20.7265625 21.5625 C-21.01451311 24.12937399 -21.71537148 25.78016192 -23 28 C-22.34 28 -21.68 28 -21 28 C-20.67 30.64 -20.34 33.28 -20 36 C-23 34 -23 34 -23.58203125 31.75 C-24.23726763 23.93158628 -24.17919245 15.92132926 -20 9 C-18.01924973 7.63823419 -16.01920337 6.30406884 -14 5 C-13.34 4.01 -12.68 3.02 -12 2 C-7.88807246 0.22439493 -4.45466612 -0.21212696 0 0 Z " fill="#AB4925" transform="translate(31,8)"/>
<path d="M0 0 C1.32 0.33 2.64 0.66 4 1 C4 2.32 4 3.64 4 5 C4.33 5.33 4.66 5.66 5 6 C5.04063832 7.66617115 5.042721 9.33388095 5 11 C2.04335481 12.4783226 -0.74229737 12.06032783 -4 12 C-3.33501617 7.61110675 -1.81242323 4.0188515 0 0 Z " fill="#CB6D2D" transform="translate(41,22)"/>
<path d="M0 0 C0 0.99 0 1.98 0 3 C-1.32 3.33 -2.64 3.66 -4 4 C-3.34 4.66 -2.68 5.32 -2 6 C-7.95703125 5.609375 -7.95703125 5.609375 -10 5 C-11.76171875 2.953125 -11.76171875 2.953125 -13 1 C-11.39796533 0.63631108 -9.79325797 0.28438048 -8.1875 -0.0625 C-7.29417969 -0.25972656 -6.40085937 -0.45695312 -5.48046875 -0.66015625 C-3 -1 -3 -1 0 0 Z " fill="#C2591C" transform="translate(31,51)"/>
<path d="M0 0 C0.33 0 0.66 0 1 0 C1.63965638 2.89196758 2.23691923 5.78272077 2.8125 8.6875 C2.99748047 9.50412109 3.18246094 10.32074219 3.37304688 11.16210938 C3.82420305 13.53307907 4.15078588 15.58910754 4 18 C1.57421875 21.08203125 1.57421875 21.08203125 -1 23 C-1.12556054 16.59641256 -1.12556054 16.59641256 -0.5 13.625 C0.04736817 10.75131713 0.09771036 8.1099601 0.0625 5.1875 C0.05347656 4.21167969 0.04445313 3.23585938 0.03515625 2.23046875 C0.02355469 1.49441406 0.01195313 0.75835938 0 0 Z " fill="#AB462B" transform="translate(65,23)"/>
<path d="M0 0 C0.66 0 1.32 0 2 0 C2 2.97 2 5.94 2 9 C2.66 9 3.32 9 4 9 C3.67 10.32 3.34 11.64 3 13 C-1.62921525 14.0161692 -5.34462607 13.83796731 -10 13 C-10 12.67 -10 12.34 -10 12 C-8.72125 11.87625 -7.4425 11.7525 -6.125 11.625 C-2.65209064 11.30957601 -2.65209064 11.30957601 0 9 C0.24253813 6.78927023 0.24253813 6.78927023 0.125 4.375 C0.10695313 3.55773437 0.08890625 2.74046875 0.0703125 1.8984375 C0.04710937 1.27195312 0.02390625 0.64546875 0 0 Z " fill="#E9D2BB" transform="translate(33,22)"/>
<path d="M0 0 C2.81403301 0.28050806 5.62567253 0.57381304 8.4375 0.875 C9.23994141 0.95363281 10.04238281 1.03226563 10.86914062 1.11328125 C12.92170994 1.33845763 14.96293009 1.66222587 17 2 C17.33 2.66 17.66 3.32 18 4 C12.72 3.67 7.44 3.34 2 3 C2 3.66 2 4.32 2 5 C0.35 5 -1.3 5 -3 5 C-2.01 3.35 -1.02 1.7 0 0 Z " fill="#BC5220" transform="translate(31,8)"/>
<path d="M0 0 C0 0.66 0 1.32 0 2 C-1.98 2 -3.96 2 -6 2 C-5.67 2.99 -5.34 3.98 -5 5 C-8.875 3.25 -8.875 3.25 -10 1 C-6.78548731 -0.60725635 -3.56387464 -0.05748185 0 0 Z " fill="#BB4D1D" transform="translate(28,51)"/>
<path d="M0 0 C0.99 0.33 1.98 0.66 3 1 C3 1.66 3 2.32 3 3 C3.99 3 4.98 3 6 3 C6.33 3.99 6.66 4.98 7 6 C3.04 6 -0.92 6 -5 6 C-5 5.67 -5 5.34 -5 5 C-2.69 5 -0.38 5 2 5 C1.34 3.35 0.68 1.7 0 0 Z " fill="#B75027" transform="translate(52,13)"/>
<path d="M0 0 C3.875 1.75 3.875 1.75 5 4 C2.04335481 5.4783226 -0.74229737 5.06032783 -4 5 C-4 4.01 -4 3.02 -4 2 C-1.525 2.99 -1.525 2.99 1 4 C0.67 2.68 0.34 1.36 0 0 Z " fill="#C76A29" transform="translate(24,45)"/>
<path d="M0 0 C0.66 0 1.32 0 2 0 C2 0.66 2 1.32 2 2 C3.32 2.66 4.64 3.32 6 4 C6 4.33 6 4.66 6 5 C5.21625 5.12375 4.4325 5.2475 3.625 5.375 C0.85942178 5.79117993 0.85942178 5.79117993 -1 8 C-0.67 5.36 -0.34 2.72 0 0 Z " fill="#C77841" transform="translate(22,14)"/>
<path d="M0 0 C0.66 1.32 1.32 2.64 2 4 C-2.25566547 5.16063604 -5.6835078 4.76173392 -10 4 C-10 3.67 -10 3.34 -10 3 C-8.72125 2.87625 -7.4425 2.7525 -6.125 2.625 C-2.65209064 2.30957601 -2.65209064 2.30957601 0 0 Z " fill="#E7CAB1" transform="translate(33,31)"/>
</svg>
